<svg width="107" height="106" viewBox="0 0 107 106" fill="none" xmlns="http://www.w3.org/2000/svg">
    <g clip-path="url(#clip0_918_5397)">
        <rect width="106.667" height="106.667" fill="#323101"/>
        <path d="M39.5 41.4C42 51.4 46.5 60.9 49.5 62.4C52.5 63.9 56.5 66.4 60.5 62.4C63.7 59.2 67.8333 54.0667 69.5 51.9" stroke="#39F946"/>
        <path d="M106 105.4C97 76.9 93.5 69.4 84.5 66.4" stroke="#39F946"/>
        <path d="M81.5 106.4C77.5 93.4 73.5 85.4 63 84.9C52.5 84.4 48.5 67.4 46 62.4" stroke="#39F946"/>
        <path d="M5.5 106.4C8 96.9 12 85.9 13 82.9C14 79.9 17 75.9 19.5 75.4C22 74.9 27 68.4 32 67.9" stroke="#39F946"/>
        <path d="M69.5 85.9C56 75.4 48 68.4 47 64.9" stroke="#39F946"/>
        <path d="M52.5 76.4C48.9 76 46 80.5667 45 82.9C44.1667 82.7334 42.1 80.7 40.5 73.9" stroke="#39F946"/>
        <path d="M68.5 106.4C68.5 103.6 66.5 99.7897 65.5 98.2345M65.5 98.2345C66.1093 97.9277 66.6294 97.6317 67 97.4C66.8333 96.9 66.3 95.6 65.5 94.4C64.5 94.7334 61.9 95.3 59.5 94.9C57.1 94.5 52.1667 94.4 50 94.4L39.5 97.4C40.1667 98.7334 41.6 101.5 42 101.9C42.5 102.4 43.5 102.9 45 102.9C46.5 102.9 57 99.9 60 99.9C61.7328 99.9 63.9175 99.0312 65.5 98.2345Z" stroke="#39F946"/>
        <path d="M42.5 102.4C42.5 104 43.1667 106.067 43.5 106.9" stroke="#39F946"/>
        <path d="M80.5 92.9C85.5 98.4 88.5 103.4 89 106.4M80.5 92.9L92.5 90.9L98 91.9L102 95.9L100.5 96.9M80.5 92.9L86.5 95.9L89 93.4L93 96.4L99 97.9L100.5 96.9M100.5 96.9L102.5 103.4C102.833 104.4 103.2 106.6 102 107.4" stroke="#39F946"/>
        <path d="M41.5 78.4C37.5 79.4 29.5 82.9 27.5 85.9C25.5 88.9 19.5 99.9 18 102.9C16.8 105.3 16.5 106.233 16 106.9" stroke="#39F946"/>
        <path d="M6 104.9C9.2 104.5 12.6667 106.4 14 107.4" stroke="#39F946"/>
        <path d="M75 106.4C73 99.9 70.5 95.9 70 95.9C69.5 95.9 71.5 93.4 70 92.4C68.8 91.6 65.8333 87.0667 64.5 84.9" stroke="#39F946"/>
        <path d="M54 96.9C54.8932 96.9 55.5 97.5203 55.5 98.15C55.5 98.7798 54.8932 99.4 54 99.4C53.1068 99.4 52.5 98.7798 52.5 98.15C52.5 97.5203 53.1068 96.9 54 96.9Z" stroke="#39F946"/>
        <circle cx="74" cy="94.4" r="1.5" stroke="#39F946"/>
        <path d="M94.7139 93.1997C95.0321 93.5241 95.2082 93.9012 95.2523 94.2324C95.2964 94.5635 95.2087 94.8156 95.0505 94.9708C94.8924 95.1259 94.6387 95.2088 94.3085 95.1584C93.9781 95.1079 93.6045 94.9247 93.2862 94.6003C92.968 94.2759 92.7919 93.8989 92.7478 93.5676C92.7037 93.2365 92.7914 92.9844 92.9496 92.8293C93.1077 92.6741 93.3615 92.5912 93.6917 92.6416C94.022 92.6921 94.3956 92.8753 94.7139 93.1997Z" stroke="#39F946"/>
        <path d="M71.5 87.4C71.5 84.9 73.5 78.4 74 77.4C74.4 76.6 74.5 75.4 74.5 74.9" stroke="#39F946"/>
        <path d="M71.5 86.9C72.7 84.5 80 79.2334 83.5 76.9L81 74.9" stroke="#39F946"/>
        <path d="M85.5001 80.4C88.3001 79.6 89.6668 78.0667 90.0001 77.4C90.8334 78.4 92.8001 80.6 94.0001 81.4C95.5001 82.4 97.5001 83.9 95.0001 81.4C93.0001 79.4 85.5001 65.9 82.0001 59.4C82.6668 59.7334 84.5001 60 86.5001 58.4C88.5001 56.8 89.3334 54.7334 89.5001 53.9C88.0001 55.7334 84.5001 59.2 82.5001 58.4C80.5001 57.6 80.0001 51.0667 80.0001 47.9C81.0001 44.2334 82.6001 36.3 81.0001 33.9C79.0001 30.9 79.0001 23.4 74.0001 20.4C69.0001 17.4 65.5001 13.4 62.0001 13.4C59.2001 13.4 58.8334 14.0667 59.0001 14.4" stroke="#39F946"/>
        <path d="M60.5 13.4C56.5 9.90003 47 9.90003 38.5 19.9C31.7 27.9 31.6667 32.2334 32.5 33.4" stroke="#39F946"/>
        <path d="M61 17.4C63.5 17.9 64 21.4 66.5 28.9C69 36.4 73 41.4 77 40.9" stroke="#39F946"/>
        <path d="M76 41.4C76.4 46.2 72.8333 51.4 71 53.4C72 51.7334 73.9 47.7 73.5 44.9C73.1 42.1 72 39.0667 71.5 37.9" stroke="#39F946"/>
        <path d="M71.0001 37.4C71.0001 46.9 70.0001 52.9 68.5001 56.9C67.0001 60.9 65.5001 65.9 67.5001 68.9C69.5001 71.9 72.0001 76.4 77.0001 76.4C81.0001 76.4 81.3334 75.4 81.0001 74.9C79.6668 74.4 76.8001 72.7 76.0001 69.9C75.2001 67.1 74.6668 64.7334 74.5001 63.9" stroke="#39F946"/>
        <path d="M86 80.4C83.6 80.4 82.3333 79.0667 82 78.4" stroke="#39F946"/>
        <path d="M82.9999 75.9C85.9999 74.4 87.4999 73.9 85.4999 68.9C83.4999 63.9 82.4999 61.9 79.4999 60.9C76.4999 59.9 73.9999 58.9 73.4999 54.4C73.0999 50.8 73.3332 49.5667 73.4999 49.4" stroke="#39F946"/>
        <path d="M61 17.4C58.5 23.9 53 30.4 51 32.4C49.4 34 46.6667 35.7334 45.5 36.4C48 33.9 53.5 27.7 55.5 22.9" stroke="#39F946"/>
        <path d="M55.5 22.9C51 28.9 45 33.4 42.5 34.4C40.5 35.2 39 35.4 38.5 35.4" stroke="#39F946"/>
        <path d="M58.0001 15.4C54.0001 14.4 43.5001 19.4 40.5001 24.9C38.1001 29.3 39.1668 34.0667 40.0001 35.9" stroke="#39F946"/>
        <path d="M36.5 22.9C34.5 31.9 34 33.4 36.5 37.4" stroke="#39F946"/>
        <path d="M33 29.9C31.8 38.7 33.1666 44.9 34 46.9" stroke="#39F946"/>
        <path d="M37.5 38.4C37.1667 39.5667 36.3 42.5 35.5 44.9C34.5 47.9 30 52.9 30 56.4C30 59.9 29.5 63.9 32 64.9" stroke="#39F946"/>
        <path d="M42 60.4C40.5 65.4 34.5 68.4 31.5 67.9" stroke="#39F946"/>
        <path d="M27.5 69.9C27.5 69.9 27.5 69.9 29.5 67.9C31.5 65.9 38.5 63.9 39 59.4C39.4 55.8 39.1666 54.5667 39 54.4" stroke="#39F946"/>
        <path d="M42.4999 70.4C41.2999 66.8 41.6666 62.5667 41.9999 60.9" stroke="#39F946"/>
        <path d="M46.5 58.9C45 65.9 44.5 69.4 41.5 70.9" stroke="#39F946"/>
        <path d="M42.5001 70.4C41.5001 73.4 40.0001 74.4 38.0001 73.4C36.4001 72.6 26.0001 65.9 29.5001 73.9" stroke="#39F946"/>
        <path d="M46.5 37.9C47.5 37.4 48.5 37.9 50 38.9L43.5 39.9C44.1667 39.4 45.7 38.3 46.5 37.9Z" stroke="#39F946"/>
        <path d="M60.5 36.4C59.3 36 57.6667 37.5667 57 38.4L64 37.9C63.3333 37.5667 61.7 36.8 60.5 36.4Z" stroke="#39F946"/>
        <path d="M49 51.9C51.4 50.7 53.6667 50.7334 54.5 50.9C55.1667 50.5667 57.4 50 61 50.4M49 51.9C49.1667 52.9 50.5 54.9 54.5 54.9C58.5 54.9 60.5 51.9 61 50.4M49 51.9C49 51.9 50.5 53.4 54.5 53.4C57.5 53.4 59.5 51.4 61 50.4" stroke="#39F946"/>
        <path d="M57 43.4C58 43.9 57 45.9 56 45.9C55 45.9 54.5 46.9 53.5 46.9C52.5 46.9 52 45.9 51.5 45.9C51.346 45.9 51.1456 45.9685 51 46.0567M52 46.4C50.6226 46.5535 50.6728 46.2551 51 46.0567M51 46.0567C50 45.9 50 44.4 51 43.9" stroke="#39F946"/>
    </g>
    <defs>
        <clipPath id="clip0_918_5397">
            <rect width="107" height="106" fill="white"/>
        </clipPath>
    </defs>
</svg>
